<?xml version="1.0" standalone="no"?>
<!DOCTYPE svg PUBLIC "-//W3C//DTD SVG 20010904//EN"
 "http://www.w3.org/TR/2001/REC-SVG-20010904/DTD/svg10.dtd">
<svg version="1.0" xmlns="http://www.w3.org/2000/svg"
 width="700.000000pt" height="700.000000pt" viewBox="0 0 700.000000 700.000000"
 preserveAspectRatio="xMidYMid meet">
<metadata>
Created by potrace 1.11, written by Peter Selinger 2001-2013
</metadata>
<g transform="translate(0.000000,700.000000) scale(0.100000,-0.100000)"
fill="#000000" stroke="none">
<path d="M3298 6995 c-2 -1 -48 -6 -102 -9 -55 -4 -102 -8 -105 -10 -3 -2 -35
-7 -71 -10 -36 -4 -83 -11 -105 -16 -22 -5 -57 -11 -78 -14 -130 -20 -456
-114 -602 -173 -27 -12 -75 -31 -105 -43 -97 -39 -310 -150 -439 -227 -369
-222 -715 -534 -978 -879 -215 -282 -394 -616 -518 -964 -28 -77 -92 -295
-100 -340 -3 -14 -7 -36 -10 -50 -18 -79 -44 -223 -50 -275 -4 -33 -9 -69 -11
-80 -18 -95 -25 -523 -12 -690 27 -338 111 -695 240 -1015 52 -129 168 -368
213 -439 14 -23 25 -43 25 -47 0 -13 206 -307 287 -409 119 -150 381 -410 537
-535 110 -87 387 -280 402 -280 2 0 22 -11 43 -24 122 -78 415 -210 620 -280
192 -66 491 -137 643 -152 35 -3 66 -8 69 -9 15 -10 226 -20 404 -20 184 0
348 8 435 21 364 55 613 120 900 238 480 197 908 499 1270 896 224 245 449
589 591 905 133 297 242 675 274 950 3 28 8 60 10 71 20 91 26 519 12 713 -5
58 -10 107 -12 110 -1 4 -6 33 -9 66 -3 33 -8 69 -10 80 -2 11 -11 61 -21 110
-127 683 -486 1347 -992 1835 -124 120 -229 214 -282 250 -20 14 -45 33 -56
43 -32 30 -283 197 -294 197 -6 0 -11 5 -11 10 0 6 -5 10 -10 10 -6 0 -29 12
-52 26 -66 42 -290 151 -416 203 -217 89 -499 172 -699 205 -46 8 -234 34
-293 41 -54 7 -526 16 -532 10z"/>
</g>
</svg>
